# Blender v2.67 (sub 0) OBJ File: ''
# www.blender.org
o Sphere_Sphere.002
v -0.258819 0.965926 0.000000
v -0.500000 0.866025 0.000000
v -0.707107 0.707107 0.000000
v -0.866025 0.500000 0.000000
v -0.965926 0.258819 0.000000
v -1.000000 0.000000 0.000000
v -0.965926 -0.258819 0.000000
v -0.866026 -0.500000 0.000000
v -0.707107 -0.707107 0.000000
v -0.500000 -0.866025 0.000000
v -0.224144 0.965926 -0.129409
v -0.433013 0.866025 -0.250000
v -0.612372 0.707107 -0.353553
v -0.750000 0.500000 -0.433013
v -0.836516 0.258819 -0.482963
v -0.866025 0.000000 -0.500000
v -0.836516 -0.258819 -0.482963
v -0.750000 -0.500000 -0.433013
v -0.612373 -0.707107 -0.353553
v -0.433013 -0.866025 -0.250000
v -0.224144 -0.965926 -0.129409
v -0.000000 -1.000000 0.000000
v -0.129410 0.965926 -0.224144
v -0.250000 0.866025 -0.433012
v -0.353554 0.707107 -0.612372
v -0.433013 0.500000 -0.750000
v -0.482963 0.258819 -0.836516
v -0.500000 0.000000 -0.866025
v -0.482963 -0.258819 -0.836516
v -0.433013 -0.500000 -0.750000
v -0.353554 -0.707107 -0.612372
v -0.250000 -0.866025 -0.433013
v -0.129410 -0.965926 -0.224144
v -0.000000 0.965926 -0.258819
v -0.000000 0.866025 -0.500000
v -0.000000 0.707107 -0.707106
v -0.000000 0.500000 -0.866025
v -0.000000 0.258819 -0.965925
v -0.000000 0.000000 -1.000000
v -0.000000 -0.258819 -0.965925
v -0.000000 -0.500000 -0.866025
v -0.000000 -0.707107 -0.707106
v -0.000000 -0.866025 -0.500000
v -0.000000 -0.965926 -0.258819
v -0.000001 1.000000 0.000000
v 0.129409 0.965926 -0.224144
v 0.249999 0.866025 -0.433012
v 0.353553 0.707107 -0.612372
v 0.433012 0.500000 -0.750000
v 0.482962 0.258819 -0.836516
v 0.499999 0.000000 -0.866025
v 0.482962 -0.258819 -0.836516
v 0.433012 -0.500000 -0.750000
v 0.353553 -0.707107 -0.612372
v 0.250000 -0.866025 -0.433013
v 0.129409 -0.965926 -0.224144
v 0.224143 0.965926 -0.129409
v 0.433012 0.866025 -0.250000
v 0.612372 0.707107 -0.353553
v 0.749999 0.500000 -0.433012
v 0.836515 0.258819 -0.482963
v 0.866025 0.000000 -0.500000
v 0.836516 -0.258819 -0.482963
v 0.749999 -0.500000 -0.433012
v 0.612372 -0.707107 -0.353553
v 0.433012 -0.866025 -0.250000
v 0.224143 -0.965926 -0.129409
v 0.258818 0.965926 0.000000
v 0.499999 0.866025 0.000000
v 0.707106 0.707107 0.000000
v 0.866025 0.500000 0.000000
v 0.965925 0.258819 0.000000
v 0.999999 0.000000 0.000000
v 0.965925 -0.258819 0.000000
v 0.866025 -0.500000 0.000000
v 0.707106 -0.707107 0.000000
v 0.499999 -0.866025 0.000000
v 0.258819 -0.965926 0.000000
v 0.224143 0.965926 0.129409
v 0.433012 0.866025 0.250000
v 0.612372 0.707107 0.353553
v 0.749999 0.500000 0.433013
v 0.836515 0.258819 0.482963
v 0.866024 0.000000 0.500000
v 0.836516 -0.258819 0.482963
v 0.749999 -0.500000 0.433013
v 0.612372 -0.707107 0.353553
v 0.433012 -0.866025 0.250000
v 0.224143 -0.965926 0.129409
v 0.129409 0.965926 0.224144
v 0.249999 0.866025 0.433012
v 0.353553 0.707107 0.612372
v 0.433012 0.500000 0.750000
v 0.482962 0.258819 0.836516
v 0.499999 0.000000 0.866025
v 0.482962 -0.258819 0.836516
v 0.433012 -0.500000 0.750000
v 0.353553 -0.707107 0.612372
v 0.249999 -0.866025 0.433013
v 0.129409 -0.965926 0.224144
v -0.000000 0.965926 0.258819
v -0.000000 0.866025 0.500000
v -0.000000 0.707107 0.707106
v -0.000001 0.500000 0.866025
v -0.000001 0.258819 0.965925
v -0.000000 0.000000 0.999999
v -0.000000 -0.258819 0.965925
v -0.000000 -0.500000 0.866025
v -0.000001 -0.707107 0.707106
v -0.000000 -0.866025 0.500000
v -0.000000 -0.965926 0.258819
v -0.129410 0.965926 0.224144
v -0.250000 0.866025 0.433012
v -0.353554 0.707107 0.612372
v -0.433013 0.500000 0.750000
v -0.482963 0.258819 0.836516
v -0.500000 0.000000 0.866025
v -0.482963 -0.258819 0.836516
v -0.433013 -0.500000 0.750000
v -0.353554 -0.707107 0.612372
v -0.250000 -0.866025 0.433012
v -0.129410 -0.965926 0.224144
v -0.224144 0.965926 0.129409
v -0.433013 0.866025 0.250000
v -0.612372 0.707107 0.353553
v -0.750000 0.500000 0.433012
v -0.836516 0.258819 0.482963
v -0.866025 0.000000 0.500000
v -0.836516 -0.258819 0.482963
v -0.750000 -0.500000 0.433012
v -0.612373 -0.707107 0.353553
v -0.433013 -0.866025 0.250000
v -0.224144 -0.965926 0.129409
v -0.258819 -0.965926 0.000000
vt 0.569920 0.419038
vt 0.576626 0.473520
vt 0.485167 0.414614
vt 0.114169 0.316595
vt 0.120104 0.266647
vt 0.197777 0.315189
vt 0.559865 0.373239
vt 0.499936 0.370110
vt 0.564772 0.700592
vt 0.553156 0.740167
vt 0.460971 0.695173
vt 0.573390 0.650512
vt 0.457615 0.644468
vt 0.578422 0.593339
vt 0.458563 0.587083
vt 0.579526 0.532971
vt 0.463751 0.526927
vt 0.472825 0.468101
vt 0.130406 0.210402
vt 0.179224 0.265653
vt 0.270200 0.271743
vt 0.971248 0.636359
vt 0.998966 0.673874
vt 0.920511 0.666138
vt 0.215403 0.355119
vt 0.304103 0.301910
vt 0.935611 0.594643
vt 0.909347 0.610058
vt 0.357942 0.627905
vt 0.355374 0.569935
vt 0.364078 0.510364
vt 0.383461 0.453251
vt 0.161009 0.209887
vt 0.230435 0.234932
vt 0.412202 0.402489
vt 0.973093 0.321541
vt 0.920982 0.347756
vt 0.964563 0.248068
vt 0.312031 0.197900
vt 0.927212 0.715989
vt 0.861382 0.666051
vt 0.355336 0.211471
vt 0.878740 0.610013
vt 0.745286 0.364674
vt 0.693602 0.348454
vt 0.733634 0.264309
vt 0.803060 0.370084
vt 0.790997 0.266178
vt 0.862987 0.364313
vt 0.851334 0.263948
vt 0.910535 0.257771
vt 0.187518 0.193985
vt 0.260014 0.182717
vt 0.910216 0.153829
vt 0.260036 0.122999
vt 0.843591 0.715865
vt 0.770511 0.673536
vt 0.312063 0.113446
vt 0.809706 0.636119
vt 0.683154 0.258469
vt 0.682835 0.154527
vt 0.733278 0.148377
vt 0.790628 0.146156
vt 0.850979 0.148016
vt 0.202829 0.166957
vt 0.202840 0.136044
vt 0.187549 0.109531
vt 0.964303 0.163200
vt 0.920111 0.063782
vt 0.230496 0.071779
vt 0.727551 0.600343
vt 0.355374 0.108036
vt 0.270286 0.041009
vt 0.851990 0.594519
vt 0.779329 0.584364
vt 0.692730 0.064479
vt 0.744314 0.047942
vt 0.802054 0.042178
vt 0.862015 0.047581
vt 0.339141 0.416686
vt 0.352806 0.469104
vt 0.253133 0.452541
vt 0.161052 0.094521
vt 0.684460 0.614577
vt 0.682835 0.511154
vt 0.179307 0.042781
vt 0.726224 0.515899
vt 0.327287 0.643758
vt 0.298547 0.694520
vt 0.225581 0.682395
vt 0.836266 0.567729
vt 0.778391 0.524653
vt 0.346670 0.586645
vt 0.237923 0.628908
vt 0.355374 0.527074
vt 0.246997 0.570082
vt 0.252185 0.509926
vt 0.249777 0.401835
vt 0.137358 0.446497
vt 0.130449 0.095035
vt 0.242345 0.361266
vt 0.145976 0.396417
vt 0.210812 0.726899
vt 0.150883 0.723770
vt 0.766885 0.442830
vt 0.140828 0.677971
vt 0.835780 0.536820
vt 0.807143 0.472986
vt 0.134122 0.623489
vt 0.131223 0.564038
vt 0.132326 0.503669
vt 0.036503 0.452592
vt 0.120187 0.043775
vt 0.103941 0.110937
vt 0.732635 0.421663
vt 0.820515 0.370084
vt 0.098676 0.726925
vt 0.838639 0.400716
vt 0.066997 0.682433
vt 0.850663 0.510075
vt 0.857880 0.443206
vt 0.043698 0.628954
vt 0.030367 0.570133
vt 0.027913 0.509979
vt 0.364078 0.229803
vt 0.355374 0.170232
vt 0.458563 0.153084
vt 0.383461 0.286916
vt 0.463751 0.213240
vt 0.068976 0.074496
vt 0.088629 0.137966
vt 0.412202 0.337678
vt 0.472825 0.272066
vt 0.041863 0.044852
vt 0.039397 0.126711
vt 0.922260 0.400839
vt 0.371607 0.059844
vt 0.395438 0.016549
vt 0.468403 0.004424
vt 0.876927 0.494660
vt 0.917009 0.443294
vt 0.357942 0.112262
vt 0.460971 0.044993
vt 0.457615 0.095699
vt 0.579526 0.207196
vt 0.576626 0.266647
vt 0.039375 0.186429
vt 0.485167 0.325553
vt 0.569920 0.321129
vt 0.000031 0.118695
vt 0.000000 0.203150
vt 0.499936 0.370057
vt 0.559865 0.366928
vt 0.564772 0.039575
vt 0.907534 0.494705
vt 0.934284 0.510199
vt 0.573390 0.089655
vt 0.578422 0.146827
vt 0.680381 0.213291
vt 0.667051 0.272112
vt 0.088618 0.168878
vt 0.068916 0.237650
vt 0.643752 0.325591
vt 0.041777 0.275586
vt 0.612072 0.370084
vt 0.553156 0.000000
vt 0.655197 0.045040
vt 0.968685 0.473225
vt 0.950008 0.536989
vt 0.674245 0.095750
vt 0.682835 0.153138
vt 0.950494 0.567898
vt 1.000000 0.584691
vt 0.894481 0.551570
vt 0.144373 0.151693
vt 0.103909 0.195392
vt 0.682835 0.587029
vt 0.674245 0.644417
vt 0.680381 0.526876
vt 0.667050 0.468055
vt 0.643751 0.414576
vt 0.024343 0.306616
vt 0.113004 0.356842
vt 0.999062 0.524980
vt 0.655197 0.695127
vt 0.468403 0.735742
vt 0.371607 0.680323
vt 0.972382 0.089677
vt 0.304208 0.019319
vt 0.197894 0.000000
vt 0.157592 0.356842
vt 0.055552 0.401881
vt 0.626988 0.004462
vn -0.776013 -0.595456 -0.207932
vn -0.600821 0.783005 -0.160989
vn -0.600821 -0.783005 -0.160989
vn -0.776013 0.595456 -0.207932
vn -0.896809 0.371470 -0.240299
vn -0.958209 0.126151 -0.256751
vn -0.958209 -0.126150 -0.256751
vn -0.896809 -0.371470 -0.240299
vn -0.380687 0.919061 -0.102005
vn -0.439831 0.783005 -0.439831
vn -0.439832 -0.783005 -0.439832
vn -0.568081 0.595456 -0.568081
vn -0.278683 -0.919060 -0.278683
vn -0.656510 0.371470 -0.656510
vn -0.701458 0.126151 -0.701458
vn -0.701458 -0.126150 -0.701458
vn -0.656510 -0.371470 -0.656510
vn -0.278682 0.919061 -0.278682
vn -0.568081 -0.595456 -0.568081
vn -0.207932 -0.595456 -0.776013
vn -0.160990 0.783005 -0.600821
vn -0.160990 -0.783005 -0.600821
vn -0.207932 0.595456 -0.776013
vn -0.102005 -0.919060 -0.380688
vn -0.240299 0.371470 -0.896809
vn -0.256751 0.126151 -0.958209
vn -0.256751 -0.126150 -0.958209
vn -0.240299 -0.371470 -0.896809
vn -0.102005 0.919061 -0.380687
vn 0.207932 -0.595456 -0.776013
vn 0.160989 0.783005 -0.600821
vn 0.160990 -0.783005 -0.600821
vn 0.207932 0.595456 -0.776013
vn 0.102005 -0.919060 -0.380688
vn 0.240299 0.371470 -0.896809
vn 0.256751 0.126151 -0.958209
vn 0.256751 -0.126150 -0.958209
vn 0.240299 -0.371470 -0.896809
vn 0.102005 0.919061 -0.380687
vn 0.278682 0.919061 -0.278682
vn 0.568081 -0.595456 -0.568081
vn 0.439831 0.783005 -0.439831
vn 0.439832 -0.783005 -0.439832
vn 0.568081 0.595456 -0.568081
vn 0.278683 -0.919060 -0.278683
vn 0.656510 0.371470 -0.656510
vn 0.701458 0.126151 -0.701458
vn 0.701458 -0.126150 -0.701458
vn 0.656510 -0.371470 -0.656510
vn 0.896809 -0.371471 -0.240299
vn 0.380687 0.919061 -0.102005
vn 0.776013 -0.595456 -0.207932
vn 0.600821 0.783005 -0.160989
vn 0.600821 -0.783005 -0.160989
vn 0.776013 0.595456 -0.207932
vn 0.380688 -0.919060 -0.102005
vn 0.896809 0.371470 -0.240299
vn 0.958209 0.126151 -0.256751
vn 0.958209 -0.126150 -0.256751
vn 0.896809 -0.371471 0.240299
vn 0.380687 0.919061 0.102005
vn 0.776013 -0.595456 0.207932
vn 0.600821 0.783005 0.160990
vn 0.600821 -0.783005 0.160990
vn 0.776013 0.595456 0.207932
vn 0.380688 -0.919060 0.102005
vn 0.896809 0.371470 0.240299
vn 0.958209 0.126150 0.256752
vn 0.958209 -0.126150 0.256751
vn 0.656510 -0.371471 0.656510
vn 0.278682 0.919061 0.278682
vn 0.568081 -0.595456 0.568081
vn 0.439831 0.783005 0.439831
vn 0.439832 -0.783005 0.439832
vn 0.568081 0.595456 0.568081
vn 0.278683 -0.919060 0.278683
vn 0.656510 0.371470 0.656510
vn 0.701458 0.126150 0.701458
vn 0.701458 -0.126150 0.701458
vn 0.256751 -0.126150 0.958209
vn 0.240299 -0.371471 0.896809
vn 0.102005 0.919061 0.380687
vn 0.207932 -0.595456 0.776013
vn 0.160989 0.783005 0.600821
vn 0.160989 -0.783005 0.600821
vn 0.207932 0.595456 0.776013
vn 0.102005 -0.919060 0.380688
vn 0.240299 0.371470 0.896809
vn 0.256751 0.126150 0.958209
vn -0.256751 -0.126150 0.958209
vn -0.240299 -0.371471 0.896809
vn -0.102005 0.919061 0.380687
vn -0.207932 -0.595456 0.776013
vn -0.160990 0.783005 0.600821
vn -0.160990 -0.783005 0.600821
vn -0.207932 0.595456 0.776013
vn -0.102005 -0.919060 0.380688
vn -0.240299 0.371470 0.896809
vn -0.256751 0.126150 0.958209
vn -0.701458 -0.126150 0.701458
vn -0.656510 -0.371471 0.656509
vn -0.278682 0.919061 0.278682
vn -0.568081 -0.595456 0.568081
vn -0.439831 0.783005 0.439831
vn -0.439832 -0.783005 0.439832
vn -0.568081 0.595456 0.568081
vn -0.278683 -0.919060 0.278683
vn -0.656510 0.371470 0.656510
vn -0.701458 0.126150 0.701458
vn -0.380688 -0.919060 -0.102005
vn -0.130447 -0.990839 -0.034953
vn -0.130447 0.990839 -0.034953
vn -0.095494 -0.990839 -0.095494
vn -0.095494 0.990839 -0.095494
vn -0.034953 -0.990839 -0.130447
vn -0.034953 0.990839 -0.130447
vn 0.034953 -0.990839 -0.130447
vn 0.034953 0.990839 -0.130446
vn 0.095494 -0.990839 -0.095494
vn 0.095493 0.990839 -0.095493
vn 0.130447 -0.990839 -0.034953
vn 0.130447 0.990839 -0.034953
vn 0.130447 -0.990839 0.034953
vn 0.130447 0.990839 0.034953
vn 0.095494 0.990839 0.095494
vn 0.095494 -0.990839 0.095494
vn 0.034953 0.990839 0.130447
vn 0.034953 -0.990839 0.130447
vn -0.034953 0.990839 0.130447
vn -0.034953 -0.990839 0.130447
vn -0.095494 0.990839 0.095494
vn -0.095494 -0.990839 0.095494
vn -0.130447 -0.990839 0.034953
vn -0.958209 0.126151 0.256752
vn -0.958209 -0.126150 0.256751
vn -0.130447 0.990839 0.034953
vn -0.896809 -0.371471 0.240299
vn -0.380687 0.919061 0.102005
vn -0.776013 -0.595456 0.207932
vn -0.600821 0.783005 0.160989
vn -0.600821 -0.783005 0.160990
vn -0.776013 0.595456 0.207932
vn -0.380688 -0.919060 0.102005
vn -0.896809 0.371470 0.240299
vn -0.600821 -0.783005 -0.160990
vn -0.160989 0.783005 -0.600821
vn -0.160989 -0.783005 -0.600821
vn 0.656510 -0.371471 -0.656509
vn 0.600821 -0.783005 -0.160990
vn 0.958209 0.126150 -0.256751
vn 0.600821 0.783005 0.160989
vn 0.600821 -0.783004 0.160990
vn 0.958209 0.126150 0.256751
vn -0.256752 0.126150 0.958209
vn -0.656510 -0.371471 0.656510
vn -0.701458 0.126151 0.701458
vn -0.958209 -0.126150 0.256752
vn -0.896809 -0.371470 0.240299
vn -0.380687 0.919060 0.102005
s off
f 9/1/1 8/2/1 19/3/1
f 3/4/2 2/5/2 13/6/2
f 10/7/3 9/1/3 20/8/3
f 4/9/4 3/10/4 14/11/4
f 5/12/5 4/9/5 15/13/5
f 6/14/6 5/12/6 16/15/6
f 7/16/7 6/14/7 17/17/7
f 8/2/8 7/16/8 18/18/8
f 2/5/9 1/19/9 12/20/9
f 13/6/10 12/20/10 25/21/10
f 20/22/11 19/23/11 32/24/11
f 14/25/12 13/6/12 26/26/12
f 21/27/13 20/22/13 33/28/13
f 15/13/14 14/11/14 27/29/14
f 16/15/15 15/13/15 28/30/15
f 17/17/16 16/15/16 29/31/16
f 18/18/17 17/17/17 30/32/17
f 12/20/18 11/33/18 24/34/18
f 19/3/19 18/18/19 31/35/19
f 31/36/20 30/37/20 42/38/20
f 25/21/21 24/34/21 36/39/21
f 32/24/22 31/40/22 43/41/22
f 26/26/23 25/21/23 37/42/23
f 33/28/24 32/24/24 44/43/24
f 27/44/25 26/45/25 38/46/25
f 28/47/26 27/44/26 39/48/26
f 29/49/27 28/47/27 40/50/27
f 30/37/28 29/49/28 41/51/28
f 24/34/29 23/52/29 35/53/29
f 42/38/30 41/51/30 53/54/30
f 36/39/31 35/53/31 47/55/31
f 43/41/32 42/56/32 54/57/32
f 37/42/33 36/39/33 48/58/33
f 44/43/34 43/41/34 55/59/34
f 38/46/35 37/60/35 49/61/35
f 39/48/36 38/46/36 50/62/36
f 40/50/37 39/48/37 51/63/37
f 41/51/38 40/50/38 52/64/38
f 35/53/39 34/65/39 46/66/39
f 47/55/40 46/66/40 57/67/40
f 54/68/41 53/54/41 64/69/41
f 48/58/42 47/55/42 58/70/42
f 55/59/43 54/57/43 65/71/43
f 49/72/44 48/58/44 59/73/44
f 56/74/45 55/59/45 66/75/45
f 50/62/46 49/61/46 60/76/46
f 51/63/47 50/62/47 61/77/47
f 52/64/48 51/63/48 62/78/48
f 53/54/49 52/64/49 63/79/49
f 64/80/50 63/81/50 74/82/50
f 58/70/51 57/67/51 68/83/51
f 65/71/52 64/84/52 75/85/52
f 59/73/53 58/70/53 69/86/53
f 66/75/54 65/71/54 76/87/54
f 60/88/55 59/89/55 70/90/55
f 67/91/56 66/75/56 77/92/56
f 61/93/57 60/88/57 71/94/57
f 62/95/58 61/93/58 72/96/58
f 63/81/59 62/95/59 73/97/59
f 75/98/60 74/82/60 85/99/60
f 69/86/61 68/83/61 79/100/61
f 76/101/62 75/98/62 86/102/62
f 70/90/63 69/103/63 80/104/63
f 77/92/64 76/87/64 87/105/64
f 71/94/65 70/90/65 81/106/65
f 78/107/66 77/92/66 88/108/66
f 72/96/67 71/94/67 82/109/67
f 73/97/68 72/96/68 83/110/68
f 74/82/69 73/97/69 84/111/69
f 86/102/70 85/99/70 96/112/70
f 80/113/71 79/100/71 90/114/71
f 87/105/72 86/115/72 97/116/72
f 81/106/73 80/104/73 91/117/73
f 88/108/74 87/105/74 98/118/74
f 82/109/75 81/106/75 92/119/75
f 89/120/76 88/108/76 99/121/76
f 83/110/77 82/109/77 93/122/77
f 84/111/78 83/110/78 94/123/78
f 85/99/79 84/111/79 95/124/79
f 96/125/80 95/126/80 106/127/80
f 97/128/81 96/125/81 107/129/81
f 91/130/82 90/114/82 101/131/82
f 98/132/83 97/128/83 108/133/83
f 92/134/84 91/130/84 102/135/84
f 99/121/85 98/118/85 109/136/85
f 93/137/86 92/138/86 103/139/86
f 100/140/87 99/121/87 110/141/87
f 94/142/88 93/137/88 104/143/88
f 95/126/89 94/142/89 105/144/89
f 107/129/90 106/127/90 118/145/90
f 108/133/91 107/129/91 119/146/91
f 102/135/92 101/131/92 113/147/92
f 109/148/93 108/133/93 120/149/93
f 103/150/94 102/135/94 114/151/94
f 110/152/95 109/148/95 121/153/95
f 104/143/96 103/139/96 115/154/96
f 111/155/97 110/141/97 122/156/97
f 105/144/98 104/143/98 116/157/98
f 106/127/99 105/144/99 117/158/99
f 118/145/100 117/158/100 129/159/100
f 119/146/101 118/145/101 130/160/101
f 113/147/102 112/161/102 124/162/102
f 120/149/103 119/146/103 131/163/103
f 114/151/104 113/147/104 125/164/104
f 121/153/105 120/149/105 132/165/105
f 115/154/106 114/166/106 126/167/106
f 122/156/107 121/168/107 133/169/107
f 116/157/108 115/154/108 127/170/108
f 117/158/109 116/157/109 128/171/109
f 134/172/110 10/173/110 21/27/110
f 22/174/111 134/172/111 21/27/111
f 1/19/112 45/175/112 11/33/112
f 22/174/113 21/27/113 33/28/113
f 11/33/114 45/175/114 23/52/114
f 22/174/115 33/28/115 44/43/115
f 23/52/116 45/175/116 34/65/116
f 22/174/117 44/43/117 56/74/117
f 34/65/118 45/175/118 46/66/118
f 22/174/119 56/74/119 67/91/119
f 46/66/120 45/175/120 57/67/120
f 22/174/121 67/91/121 78/107/121
f 57/67/122 45/175/122 68/83/122
f 22/174/123 78/107/123 89/120/123
f 68/83/124 45/175/124 79/100/124
f 79/100/125 45/175/125 90/114/125
f 22/174/126 89/120/126 100/140/126
f 90/114/127 45/175/127 101/131/127
f 22/174/128 100/140/128 111/155/128
f 101/131/129 45/175/129 112/161/129
f 22/174/130 111/155/130 122/156/130
f 112/161/131 45/175/131 123/176/131
f 22/174/132 122/156/132 133/169/132
f 22/174/133 133/169/133 134/172/133
f 128/177/134 127/178/134 6/14/134
f 129/179/135 128/177/135 7/16/135
f 123/176/136 45/175/136 1/19/136
f 130/180/137 129/179/137 8/2/137
f 124/162/138 123/176/138 2/5/138
f 131/181/139 130/180/139 9/1/139
f 125/164/140 124/162/140 3/4/140
f 132/165/141 131/181/141 10/7/141
f 126/182/142 125/164/142 4/183/142
f 133/169/143 132/184/143 134/172/143
f 127/178/144 126/185/144 5/12/144
f 8/2/1 18/18/1 19/3/1
f 2/5/2 12/20/2 13/6/2
f 9/1/145 19/3/145 20/8/145
f 3/10/4 13/186/4 14/11/4
f 4/9/5 14/11/5 15/13/5
f 5/12/6 15/13/6 16/15/6
f 6/14/7 16/15/7 17/17/7
f 7/16/8 17/17/8 18/18/8
f 1/19/9 11/33/9 12/20/9
f 12/20/10 24/34/10 25/21/10
f 19/23/11 31/40/11 32/24/11
f 13/6/12 25/21/12 26/26/12
f 20/22/13 32/24/13 33/28/13
f 14/11/14 26/187/14 27/29/14
f 15/13/15 27/29/15 28/30/15
f 16/15/16 28/30/16 29/31/16
f 17/17/17 29/31/17 30/32/17
f 11/33/18 23/52/18 24/34/18
f 18/18/19 30/32/19 31/35/19
f 30/37/20 41/51/20 42/38/20
f 24/34/146 35/53/146 36/39/146
f 31/40/147 42/56/147 43/41/147
f 25/21/23 36/39/23 37/42/23
f 32/24/24 43/41/24 44/43/24
f 26/45/25 37/60/25 38/46/25
f 27/44/26 38/46/26 39/48/26
f 28/47/27 39/48/27 40/50/27
f 29/49/28 40/50/28 41/51/28
f 23/52/29 34/65/29 35/53/29
f 54/68/30 42/38/30 53/54/30
f 48/58/31 36/39/31 47/55/31
f 55/59/32 43/41/32 54/57/32
f 49/72/33 37/42/33 48/58/33
f 56/74/34 44/43/34 55/59/34
f 50/62/35 38/46/35 49/61/35
f 51/63/36 39/48/36 50/62/36
f 52/64/37 40/50/37 51/63/37
f 53/54/38 41/51/38 52/64/38
f 47/55/39 35/53/39 46/66/39
f 58/70/40 47/55/40 57/67/40
f 65/188/41 54/68/41 64/69/41
f 59/73/42 48/58/42 58/70/42
f 66/75/43 55/59/43 65/71/43
f 60/189/44 49/72/44 59/73/44
f 67/91/45 56/74/45 66/75/45
f 61/77/46 50/62/46 60/76/46
f 62/78/47 51/63/47 61/77/47
f 63/79/48 52/64/48 62/78/48
f 64/69/148 53/54/148 63/79/148
f 75/98/50 64/80/50 74/82/50
f 69/86/51 58/70/51 68/83/51
f 76/87/52 65/71/52 75/85/52
f 70/190/53 59/73/53 69/86/53
f 77/92/149 66/75/149 76/87/149
f 71/94/55 60/88/55 70/90/55
f 78/107/56 67/91/56 77/92/56
f 72/96/57 61/93/57 71/94/57
f 73/97/150 62/95/150 72/96/150
f 74/82/59 63/81/59 73/97/59
f 86/102/60 75/98/60 85/99/60
f 80/113/61 69/86/61 79/100/61
f 87/191/62 76/101/62 86/102/62
f 81/106/151 70/90/151 80/104/151
f 88/108/152 77/92/152 87/105/152
f 82/109/65 71/94/65 81/106/65
f 89/120/66 78/107/66 88/108/66
f 83/110/67 72/96/67 82/109/67
f 84/111/153 73/97/153 83/110/153
f 85/99/69 74/82/69 84/111/69
f 97/192/70 86/102/70 96/112/70
f 91/130/71 80/113/71 90/114/71
f 98/118/72 87/105/72 97/116/72
f 92/119/73 81/106/73 91/117/73
f 99/121/74 88/108/74 98/118/74
f 93/122/75 82/109/75 92/119/75
f 100/140/76 89/120/76 99/121/76
f 94/123/77 83/110/77 93/122/77
f 95/124/78 84/111/78 94/123/78
f 96/112/79 85/99/79 95/124/79
f 107/129/80 96/125/80 106/127/80
f 108/133/81 97/128/81 107/129/81
f 102/135/82 91/130/82 101/131/82
f 109/148/83 98/132/83 108/133/83
f 103/150/84 92/134/84 102/135/84
f 110/141/85 99/121/85 109/136/85
f 104/143/86 93/137/86 103/139/86
f 111/155/87 100/140/87 110/141/87
f 105/144/88 94/142/88 104/143/88
f 106/127/89 95/126/89 105/144/89
f 106/127/90 117/158/90 118/145/90
f 107/129/91 118/145/91 119/146/91
f 101/131/92 112/161/92 113/147/92
f 108/133/93 119/146/93 120/149/93
f 102/135/94 113/147/94 114/151/94
f 109/148/95 120/149/95 121/153/95
f 103/139/96 114/166/96 115/154/96
f 110/141/97 121/168/97 122/156/97
f 104/143/98 115/154/98 116/157/98
f 105/144/154 116/157/154 117/158/154
f 117/158/100 128/171/100 129/159/100
f 118/145/155 129/159/155 130/160/155
f 112/161/102 123/176/102 124/162/102
f 119/146/103 130/160/103 131/163/103
f 113/147/104 124/162/104 125/164/104
f 120/149/105 131/163/105 132/165/105
f 114/166/106 125/193/106 126/167/106
f 121/168/107 132/184/107 133/169/107
f 115/154/108 126/167/108 127/170/108
f 116/157/156 127/170/156 128/171/156
f 10/173/110 20/22/110 21/27/110
f 127/178/134 5/12/134 6/14/134
f 128/177/157 6/14/157 7/16/157
f 129/179/158 7/16/158 8/2/158
f 123/176/159 1/19/159 2/5/159
f 130/180/139 8/2/139 9/1/139
f 124/162/140 2/5/140 3/4/140
f 131/181/141 9/1/141 10/7/141
f 125/164/142 3/4/142 4/183/142
f 132/184/143 10/173/143 134/172/143
f 126/185/144 4/9/144 5/12/144
