# Blender v2.67 (sub 0) OBJ File: ''
# www.blender.org
o Default
v -15.100000 -0.999991 -22.299999
v -15.100000 -1.000006 22.299999
v 15.100000 -1.000006 22.299999
v 10.233300 15.600009 -22.299995
v 15.100000 15.600009 -22.299995
v 10.233300 15.600006 -14.866694
v 10.233300 15.599994 22.300003
v 10.233300 15.599997 14.866706
v 15.100000 15.599997 14.866706
v 15.100000 15.600006 -14.866694
v 15.100000 15.600004 -7.433325
v 10.233300 15.600004 -7.433325
v 15.100000 15.600001 0.000006
v 10.233300 15.600001 0.000006
v 15.100000 15.599998 7.433335
v 10.233300 15.599998 7.433335
v -9.900000 15.599994 22.300003
v -15.100000 15.599994 22.300003
v -9.900000 15.599997 14.866706
v -9.900000 15.600009 -22.299995
v -9.900000 15.600006 -14.866694
v -15.100000 15.600006 -14.866694
v -9.900000 15.600004 -7.433325
v -15.100000 15.600004 -7.433325
v -9.900000 15.600001 0.000006
v -15.100000 15.600001 0.000006
v -9.900000 15.599998 7.433335
v -15.100000 15.599998 7.433335
v -15.100000 15.599997 14.866706
v -4.866670 15.599994 22.300003
v -4.866670 15.600009 -22.299995
v -4.866670 15.600006 -14.866694
v -4.866670 15.600004 -7.433325
v -4.866670 15.600001 0.000006
v -4.866670 15.599998 7.433335
v 0.166667 15.599994 22.300003
v -4.866670 15.599997 14.866706
v 0.166667 15.600009 -22.299995
v 0.166667 15.600006 -14.866694
v 0.166667 15.600004 -7.433325
v 0.166667 15.599998 7.433335
v 0.166667 15.600001 0.000006
v 0.166667 15.599997 14.866706
v 5.200000 15.599994 22.300003
v 5.200000 15.600009 -22.299995
v 5.200000 15.600006 -14.866694
v 5.200000 15.600004 -7.433325
v 5.200000 15.599998 7.433335
v 5.200000 15.600001 0.000006
v 5.200000 15.599997 14.866706
v 10.233300 15.900008 -14.866694
v 5.200000 15.900008 -14.866694
v 10.233300 15.900006 -7.433325
v -4.866670 15.900006 -7.433325
v -4.866670 15.900008 -14.866694
v -9.900000 15.900006 -7.433325
v -9.900000 15.900008 -14.866694
v -9.900000 15.900001 7.433335
v -9.900000 15.899999 14.866706
v -4.866670 15.900001 7.433335
v 5.200000 15.900001 7.433335
v 5.200000 15.899999 14.866706
v 10.233300 15.900001 7.433335
v 10.233300 15.899999 14.866706
v 15.100000 15.899994 22.300003
v 15.100000 15.900009 -22.299995
v 15.100000 11.406695 22.300003
v 15.100000 5.773324 22.300001
v 15.100000 5.773340 -22.299997
v -15.100000 15.900009 -22.299995
v -15.100000 15.899994 22.300003
v -15.100000 11.406695 22.300003
v -15.100000 5.773340 -22.299997
v -15.100000 11.406710 -22.299995
v 15.100000 15.960011 -22.299995
v -15.100000 15.960011 -22.299995
v -15.100000 11.446710 -22.299995
v 15.100000 5.793340 -22.299997
v 15.100000 11.446710 -22.299995
v -15.100000 15.919994 22.300003
v 15.100000 -0.999991 -22.299999
v 15.100000 15.599994 22.300003
v -15.100000 15.600009 -22.299995
v 5.200000 15.900006 -7.433325
v -4.866670 15.899999 14.866706
v 15.100000 11.406710 -22.299995
v -15.100000 5.773324 22.300001
v -15.100000 5.793340 -22.299997
v 15.100000 15.919994 22.300003
v 21.685900 10.759398 13.695004
v 13.750300 10.842598 13.695004
v 13.750300 10.842596 17.391005
v 21.685699 -0.244552 13.695000
v 13.750100 -0.161453 13.695000
v 13.750100 -0.161454 17.391001
v 21.685699 -0.244554 17.391001
v 21.685900 10.759396 17.391005
v -15.095000 -2.803992 -17.605000
v -15.095000 5.132008 -17.604998
v -15.095000 5.132008 -17.408998
v -15.109000 -2.803992 -17.605000
v -15.109000 5.132008 -17.604998
v -15.109000 5.132008 -17.408998
v -15.109000 -2.803992 -17.409000
v -15.095000 -2.803992 -17.409000
v -15.095000 -2.803992 -17.605000
v -15.095000 5.132008 -17.604998
v -15.095000 5.132008 -17.408998
v -15.109000 -2.803992 -17.605000
v -15.109000 5.132008 -17.604998
v -15.109000 5.132008 -17.408998
v -15.109000 -2.803992 -17.409000
v -15.095000 -2.803992 -17.409000
v -15.095000 -2.803994 -11.805000
v -15.095000 5.132006 -11.804998
v -15.095000 5.132006 -11.608998
v -15.109000 -2.803994 -11.805000
v -15.109000 5.132006 -11.804998
v -15.109000 5.132006 -11.608998
v -15.109000 -2.803994 -11.609000
v -15.095000 -2.803994 -11.609000
v -15.095000 -2.803996 -6.255002
v -15.095000 5.132004 -6.254998
v -15.095000 5.132004 -6.058998
v -15.109000 -2.803996 -6.255002
v -15.109000 5.132004 -6.254998
v -15.109000 5.132004 -6.058998
v -15.109000 -2.803996 -6.059000
v -15.095000 -2.803996 -6.059000
vt 0.345298 0.001553
vt 0.345298 0.498447
vt 0.685952 0.498447
vt 0.287306 0.001553
vt 0.342202 0.001553
vt 0.287306 0.084368
vt 0.287306 0.498447
vt 0.287306 0.415631
vt 0.342202 0.415631
vt 0.342202 0.084368
vt 0.342202 0.167184
vt 0.287306 0.167184
vt 0.342202 0.250000
vt 0.287306 0.250000
vt 0.342202 0.332816
vt 0.287306 0.332816
vt 0.060204 0.498447
vt 0.001548 0.498447
vt 0.060204 0.415631
vt 0.060204 0.001553
vt 0.060204 0.084368
vt 0.001548 0.084368
vt 0.060204 0.167184
vt 0.001548 0.167184
vt 0.060204 0.250000
vt 0.001548 0.250000
vt 0.060204 0.332816
vt 0.001548 0.332816
vt 0.001548 0.415631
vt 0.116979 0.498447
vt 0.116979 0.001553
vt 0.116979 0.084368
vt 0.116979 0.167184
vt 0.116979 0.250000
vt 0.116979 0.332816
vt 0.173755 0.498447
vt 0.116979 0.415631
vt 0.173755 0.001553
vt 0.173755 0.084368
vt 0.173755 0.167184
vt 0.173755 0.332816
vt 0.173755 0.250000
vt 0.173755 0.415631
vt 0.230531 0.498447
vt 0.230531 0.001553
vt 0.230531 0.084368
vt 0.230531 0.167184
vt 0.230531 0.332816
vt 0.230531 0.250000
vt 0.230531 0.415631
vt 0.774504 0.412792
vt 0.869715 0.412792
vt 0.774504 0.425838
vt 0.842997 0.330600
vt 0.910812 0.330600
vt 0.910812 0.343646
vt 1.665050 0.449093
vt 1.760260 0.449093
vt 1.760260 0.462140
vt 0.842997 0.303203
vt 0.910812 0.303203
vt 0.842997 0.316249
vt 1.760260 0.475838
vt 1.665050 0.475838
vt 1.760260 0.462792
vt 0.938209 0.439537
vt 0.870394 0.439537
vt 0.938209 0.426491
vt 0.869715 0.439537
vt 0.774504 0.439537
vt 0.774504 0.426491
vt 0.938209 0.412140
vt 0.870394 0.412140
vt 0.870394 0.399093
vt 0.774504 0.440189
vt 0.869715 0.440189
vt 0.869715 0.453235
vt 0.842997 0.316901
vt 0.910812 0.316901
vt 0.910812 0.329948
vt 1.665050 0.476491
vt 1.760260 0.476491
vt 1.665050 0.489537
vt 0.870394 0.412792
vt 0.938209 0.412792
vt 0.938209 0.425838
vt 0.869715 0.412140
vt 0.774504 0.412140
vt 0.774504 0.399093
vt 0.842318 0.398441
vt 0.774503 0.398441
vt 0.774503 0.385395
vt 1.760260 0.503235
vt 1.665050 0.503235
vt 1.760260 0.490189
vt 0.910812 0.302551
vt 0.842997 0.302551
vt 0.842997 0.289504
vt 0.998447 0.717226
vt 0.501553 0.717226
vt 0.998447 0.663114
vt 0.998447 0.595274
vt 0.501553 0.595274
vt 0.001553 0.717226
vt 0.498447 0.717226
vt 0.498447 0.663114
vt 0.001553 0.595274
vt 0.001553 0.663114
vt 0.342202 0.842226
vt 0.001548 0.842226
vt 0.001548 0.788087
vt 0.342202 0.720274
vt 0.342202 0.788087
vt 0.685952 0.720290
vt 0.345298 0.720290
vt 0.345298 0.935960
vt 0.685952 0.001553
vt 0.342202 0.498447
vt 0.001548 0.001553
vt 0.869715 0.425838
vt 0.842997 0.343646
vt 1.665050 0.462140
vt 0.910812 0.316249
vt 1.665050 0.462792
vt 0.870394 0.426491
vt 0.869715 0.426491
vt 0.938209 0.399093
vt 0.774504 0.453235
vt 0.842997 0.329948
vt 1.760260 0.489537
vt 0.870394 0.425838
vt 0.869715 0.399093
vt 0.842318 0.385395
vt 1.665050 0.490189
vt 0.910812 0.289504
vt 0.501553 0.663114
vt 0.498447 0.595274
vt 0.001548 0.720274
vt 0.685952 0.935960
vt 0.498447 0.501512
vt 0.498447 0.592238
vt 0.001553 0.501512
vt 0.501553 0.501512
vt 0.501553 0.592238
vt 0.998447 0.592238
vt 0.001548 0.935988
vt 0.001548 0.845262
vt 0.342202 0.845262
vt 0.001553 0.592238
vt 0.998447 0.501512
vt 0.342202 0.935988
vt 0.873488 0.126488
vt 0.782762 0.126488
vt 0.782762 0.186012
vt 0.873486 0.001524
vt 0.782762 0.002438
vt 0.873488 0.122562
vt 0.876488 0.001524
vt 0.936012 0.001524
vt 0.876488 0.123476
vt 0.689012 0.002438
vt 0.779736 0.001524
vt 0.689014 0.123476
vt 0.998512 0.001524
vt 0.938988 0.001524
vt 0.938988 0.123476
vt 0.779738 0.126488
vt 0.779738 0.186012
vt 0.689012 0.126488
vt 0.873488 0.186012
vt 0.782764 0.123476
vt 0.936012 0.123476
vt 0.779738 0.122562
vt 0.998512 0.123476
vt 0.689012 0.186012
vt 0.938222 0.152532
vt 0.938222 0.247742
vt 0.925175 0.247742
vt 1.787670 0.120340
vt 1.787670 0.215550
vt 1.774630 0.215550
vt 1.774630 0.311441
vt 1.774630 0.216230
vt 1.787670 0.216230
vt 1.760930 0.216230
vt 1.773980 0.216230
vt 1.760930 0.311441
vt 1.773980 0.120340
vt 1.773980 0.215550
vt 1.760930 0.215550
vt 0.938222 0.248422
vt 0.938222 0.343633
vt 0.925175 0.343633
vt 0.801888 0.384728
vt 0.801888 0.289518
vt 0.814934 0.289518
vt 0.774491 0.289518
vt 0.787537 0.289518
vt 0.774491 0.384728
vt 0.801235 0.289518
vt 0.801235 0.384728
vt 0.788189 0.384728
vt 1.773980 0.312121
vt 1.773980 0.407331
vt 1.760930 0.407331
vt 0.829285 0.384728
vt 0.829285 0.289518
vt 0.842331 0.289518
vt 1.774630 0.312121
vt 1.787670 0.312121
vt 1.774630 0.407331
vt 0.828633 0.289518
vt 0.828633 0.384728
vt 0.815586 0.384728
vt 1.760280 0.257326
vt 1.760280 0.352537
vt 1.747230 0.352537
vt 1.719830 0.352537
vt 1.719830 0.257326
vt 1.732880 0.257326
vt 1.733530 0.257326
vt 1.746580 0.257326
vt 1.733530 0.352537
vt 0.925175 0.152532
vt 1.774630 0.120340
vt 1.787670 0.311441
vt 1.773980 0.311441
vt 1.760930 0.120340
vt 0.925175 0.248422
vt 0.814934 0.384728
vt 0.787537 0.384728
vt 0.788189 0.289518
vt 1.760930 0.312121
vt 0.842331 0.384728
vt 1.787670 0.407331
vt 0.815586 0.289518
vt 1.747230 0.257326
vt 1.732880 0.352537
vt 1.746580 0.352537
vn 0.000000 1.000000 0.000000
vn -0.000000 -1.000000 -0.000000
vn -1.000000 -0.000000 -0.000000
vn 0.000000 0.000000 1.000000
vn 1.000000 0.000000 0.000000
vn 0.000000 -0.000000 -1.000000
vn 0.010484 0.999945 0.000001
vn -1.000000 0.000018 0.000000
vn 1.000000 -0.000018 -0.000000
vn -0.010471 -0.999945 -0.000000
s off
f 1/1/1 2/2/1 3/3/1
f 4/4/2 5/5/2 6/6/2
f 7/7/2 8/8/2 9/9/2
f 10/10/2 11/11/2 12/12/2
f 11/11/2 13/13/2 14/14/2
f 13/13/2 15/15/2 16/16/2
f 15/15/2 9/9/2 8/8/2
f 17/17/2 18/18/2 19/19/2
f 20/20/2 21/21/2 22/22/2
f 21/21/2 23/23/2 24/24/2
f 23/23/2 25/25/2 26/26/2
f 25/25/2 27/27/2 28/28/2
f 27/27/2 19/19/2 29/29/2
f 30/30/2 17/17/2 19/19/2
f 31/31/2 32/32/2 21/21/2
f 33/33/2 34/34/2 23/23/2
f 34/34/2 35/35/2 25/25/2
f 36/36/2 30/30/2 37/37/2
f 38/38/2 39/39/2 32/32/2
f 39/39/2 40/40/2 33/33/2
f 33/33/2 40/40/2 34/34/2
f 41/41/2 35/35/2 42/42/2
f 41/41/2 43/43/2 37/37/2
f 44/44/2 36/36/2 43/43/2
f 45/45/2 46/46/2 39/39/2
f 46/46/2 47/47/2 40/40/2
f 40/40/2 47/47/2 42/42/2
f 48/48/2 41/41/2 49/49/2
f 48/48/2 50/50/2 43/43/2
f 7/7/2 44/44/2 50/50/2
f 4/4/2 6/6/2 46/46/2
f 12/12/2 14/14/2 47/47/2
f 14/14/2 16/16/2 49/49/2
f 6/51/3 12/52/3 51/53/3
f 46/54/4 6/55/4 51/56/4
f 47/57/5 46/58/5 52/59/5
f 12/60/6 47/61/6 53/62/6
f 54/63/3 55/64/3 33/65/3
f 56/66/6 54/67/6 23/68/6
f 57/69/5 56/70/5 23/71/5
f 55/72/4 57/73/4 21/74/4
f 19/75/5 27/76/5 58/77/5
f 37/78/6 19/79/6 59/80/6
f 35/81/3 37/82/3 60/83/3
f 27/84/4 35/85/4 60/86/4
f 61/87/5 62/88/5 50/89/5
f 63/90/4 61/91/4 48/92/4
f 64/93/3 63/94/3 8/95/3
f 62/96/6 64/97/6 8/98/6
f 65/99/3 66/100/3 67/101/3
f 68/102/3 67/101/3 69/103/3
f 70/104/5 71/105/5 72/106/5
f 73/107/5 74/108/5 72/106/5
f 75/109/4 76/110/4 77/111/4
f 78/112/4 79/113/4 77/111/4
f 3/114/6 2/115/6 80/116/6
f 81/117/1 1/1/1 3/3/1
f 5/5/2 10/10/2 6/6/2
f 82/118/2 7/7/2 9/9/2
f 6/6/2 10/10/2 12/12/2
f 12/12/2 11/11/2 14/14/2
f 14/14/2 13/13/2 16/16/2
f 16/16/2 15/15/2 8/8/2
f 18/18/2 29/29/2 19/19/2
f 83/119/2 20/20/2 22/22/2
f 22/22/2 21/21/2 24/24/2
f 24/24/2 23/23/2 26/26/2
f 26/26/2 25/25/2 28/28/2
f 28/28/2 27/27/2 29/29/2
f 37/37/2 30/30/2 19/19/2
f 20/20/2 31/31/2 21/21/2
f 34/34/2 25/25/2 23/23/2
f 35/35/2 27/27/2 25/25/2
f 43/43/2 36/36/2 37/37/2
f 31/31/2 38/38/2 32/32/2
f 32/32/2 39/39/2 33/33/2
f 40/40/2 42/42/2 34/34/2
f 35/35/2 34/34/2 42/42/2
f 35/35/2 41/41/2 37/37/2
f 50/50/2 44/44/2 43/43/2
f 38/38/2 45/45/2 39/39/2
f 39/39/2 46/46/2 40/40/2
f 47/47/2 49/49/2 42/42/2
f 41/41/2 42/42/2 49/49/2
f 41/41/2 48/48/2 43/43/2
f 8/8/2 7/7/2 50/50/2
f 45/45/2 4/4/2 46/46/2
f 14/14/2 49/49/2 47/47/2
f 16/16/2 48/48/2 49/49/2
f 12/52/3 53/120/3 51/53/3
f 52/121/4 46/54/4 51/56/4
f 84/122/5 47/57/5 52/59/5
f 47/61/6 84/123/6 53/62/6
f 55/64/3 32/124/3 33/65/3
f 54/67/6 33/125/6 23/68/6
f 21/126/5 57/69/5 23/71/5
f 32/127/4 55/72/4 21/74/4
f 59/128/5 19/75/5 58/77/5
f 85/129/6 37/78/6 59/80/6
f 37/82/3 85/130/3 60/83/3
f 58/131/4 27/84/4 60/86/4
f 48/132/5 61/87/5 50/89/5
f 16/133/4 63/90/4 48/92/4
f 63/94/3 16/134/3 8/95/3
f 50/135/6 62/96/6 8/98/6
f 66/100/3 86/136/3 67/101/3
f 67/101/3 86/136/3 69/103/3
f 74/108/5 70/104/5 72/106/5
f 87/137/5 73/107/5 72/106/5
f 79/113/4 75/109/4 77/111/4
f 88/138/4 78/112/4 77/111/4
f 89/139/6 3/114/6 80/116/6
f 3/140/3 68/141/3 81/142/3
f 1/143/5 73/144/5 87/145/5
f 88/146/4 1/147/4 81/148/4
f 68/141/3 69/149/3 81/142/3
f 2/150/5 1/143/5 87/145/5
f 78/151/4 88/146/4 81/148/4
f 90/152/7 91/153/7 92/154/7
f 93/155/6 94/156/6 90/157/6
f 94/158/8 95/159/8 91/160/8
f 95/161/4 96/162/4 92/163/4
f 96/164/9 93/165/9 90/166/9
f 93/167/10 96/168/10 94/169/10
f 97/170/7 90/152/7 92/154/7
f 94/156/6 91/171/6 90/157/6
f 95/159/8 92/172/8 91/160/8
f 96/162/4 97/173/4 92/163/4
f 97/174/9 96/164/9 90/166/9
f 96/168/10 95/175/10 94/169/10
f 98/176/5 99/177/5 100/178/5
f 101/179/6 102/180/6 99/181/6
f 103/182/4 104/183/4 105/184/4
f 101/185/3 104/186/3 102/187/3
f 106/188/5 107/189/5 108/190/5
f 109/191/6 110/192/6 107/193/6
f 111/194/4 112/195/4 113/196/4
f 109/197/3 112/198/3 110/199/3
f 114/200/5 115/201/5 116/202/5
f 117/203/6 118/204/6 115/205/6
f 119/206/4 120/207/4 121/208/4
f 117/209/3 120/210/3 118/211/3
f 122/212/5 123/213/5 124/214/5
f 125/215/6 126/216/6 123/217/6
f 127/218/4 128/219/4 129/220/4
f 125/221/3 128/222/3 126/223/3
f 105/224/5 98/176/5 100/178/5
f 98/225/6 101/179/6 99/181/6
f 100/226/4 103/182/4 105/184/4
f 104/186/3 103/227/3 102/187/3
f 113/228/5 106/188/5 108/190/5
f 106/229/6 109/191/6 107/193/6
f 108/230/4 111/194/4 113/196/4
f 112/198/3 111/231/3 110/199/3
f 121/232/5 114/200/5 116/202/5
f 114/233/6 117/203/6 115/205/6
f 116/234/4 119/206/4 121/208/4
f 120/210/3 119/235/3 118/211/3
f 129/236/5 122/212/5 124/214/5
f 122/237/6 125/215/6 123/217/6
f 124/238/4 127/218/4 129/220/4
f 128/222/3 127/239/3 126/223/3
