# Blender v2.67 (sub 0) OBJ File: 'transform.blend'
# www.blender.org
mtllib transform.mtl
o Text.002_z.001
v 1.202156 0.843247 -0.179337
v 1.202156 0.843247 -0.113264
v 1.202156 0.960934 -0.010196
v 1.202156 0.843247 0.087024
v 1.202156 0.843247 0.151944
v 1.202156 0.999893 0.022093
v 1.202156 1.151442 0.151698
v 1.202156 1.151442 0.086948
v 1.202156 1.038716 -0.010406
v 1.202156 1.151442 -0.104100
v 1.202156 1.151442 -0.170378
v 1.202156 0.999768 -0.043411
v 1.187920 0.843247 -0.179337
v 1.187920 0.843247 -0.113264
v 1.187920 0.960934 -0.010196
v 1.187920 0.843247 0.087024
v 1.187920 0.843247 0.151944
v 1.187920 0.999893 0.022093
v 1.187920 1.151442 0.151698
v 1.187920 1.151442 0.086948
v 1.187920 1.038716 -0.010406
v 1.187920 1.151442 -0.104100
v 1.187920 1.151442 -0.170378
v 1.187920 0.999768 -0.043411
v 1.187920 0.843247 -0.179337
v 1.202156 0.843247 -0.179337
v 1.187920 0.843247 -0.113264
v 1.202156 0.843247 -0.113264
v 1.187920 0.960934 -0.010196
v 1.202156 0.960934 -0.010196
v 1.187920 0.843247 0.087024
v 1.202156 0.843247 0.087024
v 1.187920 0.843247 0.151944
v 1.202156 0.843247 0.151944
v 1.187920 0.999893 0.022093
v 1.202156 0.999893 0.022093
v 1.187920 1.151442 0.151698
v 1.202156 1.151442 0.151698
v 1.187920 1.151442 0.086948
v 1.202156 1.151442 0.086948
v 1.187920 1.038716 -0.010406
v 1.202156 1.038716 -0.010406
v 1.187920 1.151442 -0.104100
v 1.202156 1.151442 -0.104100
v 1.187920 1.151442 -0.170378
v 1.202156 1.151442 -0.170378
v 1.187920 0.999768 -0.043411
v 1.202156 0.999768 -0.043411
vn 1.000000 0.000000 0.000000
vn 1.000000 -0.000002 0.000002
vn -1.000000 0.000000 -0.000000
vn 0.000000 -0.414899 -0.909848
vn 0.000000 -0.910703 0.413007
vn 0.000000 -0.999878 -0.014405
vn 0.000000 -0.904660 -0.426069
vn 0.000000 -0.425306 0.905026
vn 0.000000 -0.007660 0.999969
vn 0.000000 0.418348 0.908261
vn 0.000000 0.909268 -0.416150
vn 0.000000 0.999939 0.009430
vn 0.000000 0.905301 0.424726
vn 0.000000 0.423139 -0.906034
vn 0.000000 0.009064 -0.999939
usemtl None
s off
f 6//1 8//1 7//1
f 6//1 9//1 8//1
f 9//1 11//1 10//1
f 9//1 12//1 11//1
f 6//1 12//1 9//1
f 5//1 12//1 6//1
f 5//1 3//1 12//1
f 3//1 1//1 12//1
f 5//1 4//1 3//1
f 2//2 1//2 3//2
f 20//3 18//3 19//3
f 21//3 18//3 20//3
f 23//3 21//3 22//3
f 24//3 21//3 23//3
f 24//3 18//3 21//3
f 24//3 17//3 18//3
f 15//3 17//3 24//3
f 13//3 15//3 24//3
f 16//3 17//3 15//3
f 13//3 14//3 15//3
s 1
f 26//4 28//5 27//5
f 28//5 30//6 29//6
f 30//6 32//7 31//7
f 32//7 34//8 33//8
f 34//8 36//9 35//9
f 36//9 38//10 37//10
f 38//10 40//11 39//11
f 40//11 42//12 41//12
f 42//12 44//13 43//13
f 44//13 46//14 45//14
f 46//14 48//15 47//15
f 48//15 26//4 25//4
f 25//4 26//4 27//5
f 27//5 28//5 29//6
f 29//6 30//6 31//7
f 31//7 32//7 33//8
f 33//8 34//8 35//9
f 35//9 36//9 37//10
f 37//10 38//10 39//11
f 39//11 40//11 41//12
f 41//12 42//12 43//13
f 43//13 44//13 45//14
f 45//14 46//14 47//15
f 47//15 48//15 25//4
o Text.001_Text
v -0.031672 2.123966 0.001032
v 0.023610 2.241756 0.001032
v -0.039260 2.369301 0.001032
v -0.002767 2.369301 0.001032
v 0.040953 2.277888 0.001032
v 0.082866 2.369301 0.001032
v 0.118998 2.369301 0.001032
v 0.004099 2.123966 0.001032
v -0.031672 2.123966 -0.006194
v 0.023610 2.241756 -0.006194
v -0.039260 2.369301 -0.006194
v -0.002767 2.369301 -0.006194
v 0.040953 2.277888 -0.006194
v 0.082866 2.369301 -0.006194
v 0.118998 2.369301 -0.006194
v 0.004099 2.123966 -0.006194
v -0.031672 2.123966 -0.006194
v -0.031672 2.123966 0.001032
v 0.023610 2.241756 -0.006194
v 0.023610 2.241756 0.001032
v -0.039260 2.369301 -0.006194
v -0.039260 2.369301 0.001032
v -0.002767 2.369301 -0.006194
v -0.002767 2.369301 0.001032
v 0.040953 2.277888 -0.006194
v 0.040953 2.277888 0.001032
v 0.082866 2.369301 -0.006194
v 0.082866 2.369301 0.001032
v 0.118998 2.369301 -0.006194
v 0.118998 2.369301 0.001032
v 0.004099 2.123966 -0.006194
v 0.004099 2.123966 0.001032
vn -0.000000 0.000000 1.000000
vn 0.000000 -0.000000 -1.000000
vn -0.844050 -0.536241 0.000000
vn -0.999939 -0.009552 0.000000
vn -0.849147 0.528123 0.000000
vn 0.533158 0.846004 0.000000
vn -0.008087 0.999939 0.000000
vn -0.539994 0.841639 0.000000
vn 0.843837 0.536576 0.000000
vn 0.536576 -0.843837 0.000000
usemtl None
s off
f 50//16 52//16 51//16
f 50//16 53//16 52//16
f 53//16 55//16 54//16
f 53//16 56//16 55//16
f 50//16 56//16 53//16
f 49//16 56//16 50//16
f 60//17 58//17 59//17
f 61//17 58//17 60//17
f 63//17 61//17 62//17
f 64//17 61//17 63//17
f 64//17 58//17 61//17
f 64//17 57//17 58//17
s 1
f 66//18 68//19 65//18
f 68//19 70//20 67//19
f 70//20 72//21 71//21
f 72//21 74//22 73//22
f 74//22 76//23 73//22
f 76//23 78//24 77//24
f 78//24 80//25 79//25
f 80//25 66//18 65//18
f 68//19 67//19 65//18
f 70//20 69//20 67//19
f 69//20 70//20 71//21
f 71//21 72//21 73//22
f 76//23 75//23 73//22
f 75//23 76//23 77//24
f 77//24 78//24 79//25
f 79//25 80//25 65//18
o Text_z
v 0.080983 0.858451 -1.331610
v 0.080983 0.812898 -1.331610
v -0.183311 0.812898 -1.331610
v -0.013911 1.075539 -1.331610
v -0.180948 1.075539 -1.331610
v -0.180948 1.121093 -1.331610
v 0.075493 1.121093 -1.331610
v -0.094619 0.858451 -1.331610
v 0.080983 0.858451 -1.345845
v 0.080983 0.812898 -1.345845
v -0.183311 0.812898 -1.345845
v -0.013911 1.075539 -1.345845
v -0.180948 1.075539 -1.345845
v -0.180948 1.121093 -1.345845
v 0.075493 1.121093 -1.345845
v -0.094619 0.858451 -1.345845
v 0.080983 0.858451 -1.345845
v 0.080983 0.858451 -1.331610
v 0.080983 0.812898 -1.345845
v 0.080983 0.812898 -1.331610
v -0.183311 0.812898 -1.345845
v -0.183311 0.812898 -1.331610
v -0.013911 1.075539 -1.345845
v -0.013911 1.075539 -1.331610
v -0.180948 1.075539 -1.345845
v -0.180948 1.075539 -1.331610
v -0.180948 1.121093 -1.345845
v -0.180948 1.121093 -1.331610
v 0.075493 1.121093 -1.345845
v 0.075493 1.121093 -1.331610
v -0.094619 0.858451 -1.345845
v -0.094619 0.858451 -1.331610
vn 0.707083 0.707083 0.000000
vn 0.707083 -0.707083 0.000000
vn -0.878048 -0.478500 0.000000
vn -0.707083 -0.707083 0.000000
vn -0.707083 0.707083 0.000000
vn 0.878506 0.477676 0.000000
usemtl None
s off
f 85//16 87//16 86//16
f 85//16 84//16 87//16
f 84//16 88//16 87//16
f 83//16 88//16 84//16
f 83//16 81//16 88//16
f 83//16 82//16 81//16
f 95//17 93//17 94//17
f 92//17 93//17 95//17
f 96//17 92//17 95//17
f 96//17 91//17 92//17
f 89//17 91//17 96//17
f 90//17 91//17 89//17
s 1
f 98//26 100//27 99//27
f 100//27 102//28 101//28
f 102//28 104//28 101//28
f 104//28 106//29 105//29
f 106//29 108//30 105//29
f 108//30 110//31 109//31
f 110//31 112//31 111//31
f 112//31 98//26 97//26
f 97//26 98//26 99//27
f 99//27 100//27 101//28
f 104//28 103//28 101//28
f 103//28 104//28 105//29
f 108//30 107//30 105//29
f 107//30 108//30 109//31
f 109//31 110//31 111//31
f 111//31 112//31 97//26
o Cube
v -0.024897 0.975103 0.024897
v -0.024897 0.975103 -1.273467
v 0.024897 0.975103 -1.273467
v 0.024897 0.975103 0.024897
v -0.024897 1.024897 0.024897
v -0.024897 1.024897 -1.273467
v 0.024897 1.024897 -1.273467
v 0.024897 1.024897 0.024897
v -0.026078 0.975103 -0.024691
v 1.143979 0.975103 -0.024691
v 1.143979 0.975103 0.025102
v -0.026078 0.975103 0.025102
v -0.026078 1.024897 -0.024691
v 1.143979 1.024897 -0.024691
v 1.143979 1.024897 0.025102
v -0.026078 1.024897 0.025102
v 0.023471 0.974122 -0.024691
v 0.023471 2.101267 -0.024691
v 0.023471 2.101267 0.025102
v 0.023471 0.974122 0.025102
v -0.026322 0.974122 -0.024691
v -0.026322 2.101267 -0.024691
v -0.026322 2.101267 0.025102
v -0.026322 0.974122 0.025102
vt 0.592569 0.978538
vt 0.589611 0.014354
vt 0.629546 0.978425
vt 0.706458 0.051332
vt 0.669481 0.051218
vt 0.669595 0.014241
vt 0.632504 0.978538
vt 0.629546 0.014354
vt 0.666524 0.014241
vt 0.669595 0.088422
vt 0.669481 0.051445
vt 0.512699 0.978538
vt 0.509741 0.014354
vt 0.546718 0.014241
vt 0.586653 0.014241
vt 0.589611 0.978425
vt 0.552634 0.978538
vt 0.147138 0.986996
vt 0.144149 0.012880
vt 0.188592 0.986869
vt 0.188719 0.095916
vt 0.188592 0.054461
vt 0.230047 0.054334
vt 0.013809 0.986996
vt 0.010820 0.012880
vt 0.052275 0.012752
vt 0.188719 0.054334
vt 0.188592 0.012880
vt 0.230174 0.054207
vt 0.055263 0.986868
vt 0.058252 0.012752
vt 0.099706 0.012880
vt 0.102695 0.986995
vt 0.141161 0.012752
vt 0.265506 0.983587
vt 0.262520 0.010525
vt 0.308492 0.983455
vt 0.489524 0.096498
vt 0.446538 0.096630
vt 0.446406 0.053644
vt 0.351478 0.010394
vt 0.354464 0.983455
vt 0.311477 0.983587
vt 0.446538 0.053512
vt 0.446406 0.010525
vt 0.489392 0.010394
vt 0.443421 0.010394
vt 0.446406 0.983455
vt 0.403420 0.983587
vt 0.397450 0.010394
vt 0.400435 0.983455
vt 0.354464 0.010525
vt 0.626588 0.014241
vt 0.706572 0.014354
vt 0.669481 0.978425
vt 0.706572 0.088309
vt 0.549676 0.978425
vt 0.549676 0.014354
vt 0.185604 0.012752
vt 0.230174 0.095789
vt 0.055263 0.986869
vt 0.230047 0.012752
vt 0.096718 0.986995
vt 0.144149 0.986868
vt 0.305507 0.010394
vt 0.489392 0.053512
vt 0.308492 0.010525
vt 0.489524 0.053380
vt 0.400435 0.010525
vt 0.357449 0.983587
vn 0.000000 -1.000000 0.000000
vn 0.000000 1.000000 0.000000
usemtl None
s off
f 117/1/3 118/2/3 113/3/3
f 118/4/17 119/5/17 115/6/17
f 119/7/1 120/8/1 116/9/1
f 120/10/16 117/11/16 113/4/16
f 113/12/32 114/13/32 115/14/32
f 120/15/33 119/16/33 118/17/33
f 125/18/17 126/19/17 121/20/17
f 126/21/1 127/22/1 123/23/1
f 127/24/16 128/25/16 124/26/16
f 128/27/3 125/28/3 124/29/3
f 121/30/32 122/31/32 123/32/32
f 128/33/33 127/32/33 126/34/33
f 133/35/17 134/36/17 129/37/17
f 134/38/33 135/39/33 131/40/33
f 135/41/16 136/42/16 132/43/16
f 136/44/32 133/45/32 129/46/32
f 129/47/1 130/48/1 131/49/1
f 136/50/3 135/51/3 133/52/3
f 118/2/3 114/53/3 113/3/3
f 114/54/17 118/4/17 115/6/17
f 115/55/1 119/7/1 116/9/1
f 116/56/16 120/10/16 113/4/16
f 116/57/32 113/12/32 115/14/32
f 117/58/33 120/15/33 118/17/33
f 126/19/17 122/59/17 121/20/17
f 122/60/1 126/21/1 123/23/1
f 123/61/16 127/24/16 124/26/16
f 125/28/3 121/62/3 124/29/3
f 124/63/32 121/30/32 123/32/32
f 125/64/33 128/33/33 126/34/33
f 134/36/17 130/65/17 129/37/17
f 130/66/33 134/38/33 131/40/33
f 131/67/16 135/41/16 132/43/16
f 132/68/32 136/44/32 129/46/32
f 132/69/1 129/47/1 131/49/1
f 135/51/3 134/70/3 133/52/3
