# Blender v2.67 (sub 0) OBJ File: ''
# www.blender.org
o Cube
v -0.014227 -0.025954 0.027661
v -0.014227 -0.025954 -0.027661
v 0.057067 -0.025954 -0.027661
v 0.057067 -0.025954 0.027661
v -0.014227 0.025954 0.027661
v -0.014227 0.025954 -0.027661
v 0.057067 0.025954 -0.027661
v 0.057067 0.025954 0.027661
v -0.042840 -0.036899 0.039326
v -0.042840 -0.036899 -0.039326
v -0.042840 0.036899 0.039326
v -0.042840 0.036899 -0.039326
vt 0.998999 0.501001
vt 0.751001 0.501001
vt 0.751001 0.748999
vt 0.498999 0.251001
vt 0.251001 0.251001
vt 0.498999 0.498999
vt 0.248999 0.251001
vt 0.001001 0.251001
vt 0.001001 0.498999
vt 0.498999 0.001001
vt 0.251001 0.001001
vt 0.251001 0.248999
vt 0.748999 0.251001
vt 0.501001 0.251001
vt 0.501001 0.498999
vt 0.748999 0.501001
vt 0.501001 0.501001
vt 0.501001 0.748999
vt 0.498999 0.501001
vt 0.251001 0.501001
vt 0.498999 0.748999
vt 0.248999 0.501001
vt 0.001001 0.501001
vt 0.001001 0.748999
vt 0.748999 0.001001
vt 0.501001 0.001001
vt 0.501001 0.248999
vt 0.248999 0.001001
vt 0.001001 0.001001
vt 0.001001 0.248999
vt 0.998999 0.748999
vt 0.251001 0.498999
vt 0.248999 0.498999
vt 0.498999 0.248999
vt 0.748999 0.498999
vt 0.748999 0.748999
vt 0.251001 0.748999
vt 0.248999 0.748999
vt 0.748999 0.248999
vt 0.248999 0.248999
vn 0.377519 0.000000 -0.926002
vn 0.000000 0.000000 -1.000000
vn 1.000000 -0.000000 0.000000
vn 0.000000 0.000000 1.000000
vn 0.000000 -1.000000 0.000000
vn 0.000000 1.000000 0.000000
vn -1.000000 0.000000 0.000000
vn 0.357278 -0.933998 0.000000
vn 0.377519 0.000000 0.926002
vn 0.357278 0.933998 -0.000000
s off
f 6/1/1 2/2/1 10/3/1
f 6/4/2 7/5/2 2/6/2
f 7/7/3 8/8/3 4/9/3
f 8/10/4 5/11/4 1/12/4
f 1/13/5 2/14/5 3/15/5
f 8/16/6 7/17/6 6/18/6
f 11/19/7 12/20/7 9/21/7
f 2/22/8 1/23/8 9/24/8
f 1/25/9 5/26/9 11/27/9
f 5/28/10 6/29/10 12/30/10
f 12/31/1 6/1/1 10/3/1
f 7/5/2 3/32/2 2/6/2
f 3/33/3 7/7/3 4/9/3
f 4/34/4 8/10/4 1/12/4
f 4/35/5 1/13/5 3/15/5
f 5/36/6 8/16/6 6/18/6
f 12/20/7 10/37/7 9/21/7
f 10/38/8 2/22/8 9/24/8
f 9/39/9 1/25/9 11/27/9
f 11/40/10 5/28/10 12/30/10
