<?xml version="1.0" encoding="UTF-8" standalone="no"?><!DOCTYPE svg PUBLIC "-//W3C//DTD SVG 1.1//EN" "http://www.w3.org/Graphics/SVG/1.1/DTD/svg11.dtd"><svg width="100%" height="100%" viewBox="0 0 80 80" version="1.1" xmlns="http://www.w3.org/2000/svg" xmlns:xlink="http://www.w3.org/1999/xlink" xml:space="preserve" style="fill-rule:evenodd;clip-rule:evenodd;stroke-linejoin:round;stroke-miterlimit:1.41421;"><path d="M22.392,2l-11.334,18.513l5.912,0c0.222,5.538 1.242,9.86 3.084,13.415c1.375,2.649 3.2,4.73 5.133,6.332c-6,3.539 -10.07,10.027 -10.07,17.442c0,11.136 9.16,20.298 20.301,20.298c3.106,0 6.026,-0.711 8.671,-1.979c0,0 6.754,-2.507 13.054,-9.095c5.584,-5.833 11.061,-15.194 12.245,-28.55l5.554,0l-11.334,-18.545l-11.302,18.545l5.619,0c-0.532,5.092 -1.783,9.243 -3.412,12.601c-0.849,-2.027 -1.931,-4.072 -2.988,-5.551c-5.726,-8.363 -13.533,-10.596 -17.375,-12.865c-1.922,-1.13 -2.993,-2.021 -3.965,-3.898c-0.81,-1.568 -1.538,-4.083 -1.753,-8.15l5.262,0l-11.302,-18.513Zm13.026,46.867c4.958,0 8.834,3.877 8.834,8.835c0,4.958 -3.876,8.864 -8.834,8.864c-4.961,0 -8.87,-3.906 -8.87,-8.864c0,-4.958 3.909,-8.835 8.87,-8.835Z" style="fill:#fff;fill-rule:nonzero;"/></svg>