<?xml version="1.0" encoding="UTF-8" standalone="no"?><!DOCTYPE svg PUBLIC "-//W3C//DTD SVG 1.1//EN" "http://www.w3.org/Graphics/SVG/1.1/DTD/svg11.dtd"><svg width="100%" height="100%" viewBox="0 0 490 488" version="1.1" xmlns="http://www.w3.org/2000/svg" xmlns:xlink="http://www.w3.org/1999/xlink" xml:space="preserve" style="fill-rule:evenodd;clip-rule:evenodd;stroke-linejoin:round;stroke-miterlimit:1.41421;"><path d="M72.042,15.611l80.864,36.003c0.121,4.664 0.49,9.319 1.132,13.94c1.238,8.914 3.504,17.703 6.982,26.011c2.47,5.899 5.55,11.541 9.223,16.777c2.39,3.407 5.026,6.639 7.879,9.668c1.865,1.981 3.821,3.875 5.857,5.68c1.531,1.357 3.107,2.663 4.723,3.919c10.169,7.903 21.825,13.731 33.937,18.012c1.805,0.637 3.621,1.241 5.447,1.813c2.393,0.75 4.802,1.445 7.225,2.09c3.261,0.867 6.546,1.644 9.848,2.338c4.127,0.868 8.28,1.602 12.45,2.236l-0.079,0.518l0.006,0c2.628,0.382 5.243,0.826 7.845,1.345c4.973,0.99 9.895,2.239 14.738,3.742c12.009,3.726 23.523,9.022 34.167,15.717c6.839,4.301 13.318,9.176 19.35,14.551c6.211,5.536 11.949,11.603 17.132,18.111c4.986,6.26 9.458,12.927 13.357,19.915c1.571,-6.127 3.006,-12.288 4.322,-18.474c1.924,-9.038 3.596,-18.129 5.06,-27.252c0.643,-4.01 1.241,-8.026 1.81,-12.047l2.591,-18.432l79.038,35.189c-0.418,2.824 -0.85,5.646 -1.303,8.465c-1.612,10.05 -3.447,20.065 -5.542,30.026c-2.219,10.548 -4.729,21.036 -7.584,31.43c-2.103,7.659 -4.394,15.268 -6.897,22.806c-2.112,6.363 -4.375,12.676 -6.805,18.924c-1.773,4.556 -3.634,9.078 -5.591,13.558c-1.453,3.327 -2.959,6.631 -4.52,9.908c-9.505,19.951 -21.097,38.991 -35.287,55.97c-2.063,2.468 -4.179,4.891 -6.35,7.265c-2.678,2.929 -5.44,5.783 -8.283,8.553c-3.899,3.798 -7.952,7.438 -12.156,10.896c-5.941,4.887 -12.181,9.412 -18.69,13.514c-8.544,5.385 -17.549,10.036 -26.898,13.857c-12.739,5.207 -26.1,8.859 -39.709,10.894c-11.589,1.733 -23.345,2.299 -35.049,1.753c-0.903,-0.042 -1.807,-0.091 -2.709,-0.146c-5.714,-0.132 -11.419,-0.599 -17.079,-1.395c-9.159,-1.287 -18.196,-3.433 -26.949,-6.423c-9.345,-3.192 -18.359,-7.343 -26.86,-12.368c-7.723,-4.565 -15.019,-9.85 -21.77,-15.758c-6.811,-5.961 -13.066,-12.555 -18.663,-19.668c-5.411,-6.879 -10.207,-14.242 -14.308,-21.973c-4.054,-7.644 -7.429,-15.648 -10.065,-23.89c-2.306,-7.206 -4.047,-14.593 -5.199,-22.071c-1.127,-7.315 -1.69,-14.716 -1.687,-22.117c0.007,-15.908 2.616,-31.821 7.711,-46.892c4.393,-12.996 10.644,-25.351 18.504,-36.594c4.786,-6.845 10.163,-13.276 16.048,-19.202c1.205,-1.213 2.431,-2.405 3.678,-3.575c-0.267,-0.209 -0.532,-0.419 -0.797,-0.629c-6.104,-4.85 -11.892,-10.097 -17.297,-15.715c-7.599,-7.898 -14.435,-16.526 -20.377,-25.736c-4.36,-6.759 -8.238,-13.827 -11.611,-21.129c-4.946,-10.709 -8.799,-21.913 -11.578,-33.375c-2.568,-10.591 -4.221,-21.4 -5.023,-32.268c-0.836,-11.33 -0.749,-22.724 0.18,-34.046c0.39,-4.755 0.933,-9.496 1.611,-14.219Zm164.967,345.896c0.875,-0.001 1.75,-0.021 2.624,-0.059c4.322,-0.189 8.623,-0.834 12.809,-1.924c7.507,-1.954 14.628,-5.331 20.918,-9.869c6.242,-4.503 11.661,-10.141 15.879,-16.582c3.316,-5.065 5.875,-10.615 7.579,-16.424c0.867,-2.959 1.512,-5.981 1.941,-9.034c0.717,-5.1 0.824,-10.284 0.278,-15.406c-0.623,-5.842 -2.092,-11.587 -4.333,-17.016c-2.554,-6.187 -6.102,-11.957 -10.455,-17.04c-3.978,-4.643 -8.628,-8.71 -13.774,-12.013c-4.386,-2.815 -9.128,-5.069 -14.081,-6.692c-3.354,-1.098 -6.798,-1.901 -10.286,-2.431c-0.273,-0.041 -0.546,-0.08 -0.819,-0.118c-3.505,-0.475 -7.044,-0.677 -10.58,-0.567c-5.216,0.163 -10.405,0.99 -15.413,2.458c-5.987,1.756 -11.702,4.422 -16.91,7.858c-5.637,3.72 -10.68,8.339 -14.862,13.643c-3.519,4.463 -6.424,9.406 -8.594,14.66c-1.962,4.753 -3.319,9.747 -4.067,14.834c-0.459,3.123 -0.692,6.28 -0.683,9.438c0.016,6.052 0.927,12.096 2.702,17.882c2.258,7.363 5.891,14.287 10.634,20.354c4.775,6.108 10.674,11.335 17.338,15.302c3.661,2.18 7.548,3.977 11.58,5.354c3.713,1.269 7.546,2.18 11.43,2.738l0.139,0.02l0.053,-0.385c0.792,0.11 1.582,0.219 2.374,0.324c0.624,0.081 1.247,0.16 1.871,0.235c1.567,0.183 3.136,0.338 4.708,0.46Z" style="fill:#fff;"/></svg>